<svg width="42" height="25" viewBox="0 0 42 25" fill="none" xmlns="http://www.w3.org/2000/svg">
<path d="M41.7535 24.8006H0.564453C0.972999 20.9812 2.27466 17.319 4.35899 14.125C5.96091 11.5894 8.10998 9.46488 10.6403 7.91539L11.3444 7.51706L7.87808 1.51978C7.75658 1.31644 7.7187 1.07204 7.77275 0.84014C7.82679 0.608237 7.96835 0.407745 8.1664 0.282602C8.26458 0.22342 8.37318 0.18466 8.48599 0.16854C8.59881 0.152421 8.71362 0.159258 8.82385 0.18866C8.93408 0.218063 9.03757 0.269454 9.1284 0.339891C9.21922 0.410329 9.2956 0.49843 9.35316 0.599152L12.9199 6.75471C15.5611 5.67654 18.383 5.13971 21.2259 5.1746C24.0216 5.14031 26.7903 5.6758 29.3775 6.75471L32.93 0.599152C32.9886 0.497718 33.0665 0.409374 33.1591 0.339353C33.2517 0.269332 33.357 0.219057 33.4689 0.191507C33.5807 0.163957 33.6968 0.159692 33.8103 0.178964C33.9238 0.198237 34.0324 0.240655 34.1296 0.303706C34.2265 0.365867 34.3105 0.446977 34.3768 0.542404C34.443 0.63783 34.4903 0.745704 34.5159 0.85986C34.5415 0.974016 34.5449 1.09222 34.5258 1.20771C34.5068 1.32321 34.4658 1.43373 34.4051 1.53297L30.9388 7.55004L31.7973 8.03805C34.3184 9.64857 36.4484 11.8263 38.0259 14.406C39.9967 17.5486 41.2693 21.0968 41.7535 24.7993V24.8006ZM28.8819 16.9212C28.8817 17.1519 28.9259 17.3804 29.0119 17.5936C29.0979 17.8068 29.2241 18.0006 29.3831 18.1639C29.5422 18.3271 29.7311 18.4567 29.9391 18.5451C30.147 18.6336 30.3699 18.6792 30.5951 18.6794C30.8202 18.6795 31.0432 18.6343 31.2513 18.5461C31.4594 18.458 31.6485 18.3287 31.8078 18.1657C31.9671 18.0027 32.0936 17.8091 32.1799 17.5961C32.2662 17.383 32.3107 17.1546 32.3109 16.9238C32.311 16.6931 32.2667 16.4647 32.1806 16.2515C32.0945 16.0383 31.9683 15.8446 31.8092 15.6814C31.65 15.5182 31.4611 15.3887 31.2531 15.3003C31.0451 15.2119 30.8222 15.1664 30.597 15.1663C30.3719 15.1662 30.1489 15.2116 29.9409 15.2998C29.7328 15.388 29.5438 15.5174 29.3845 15.6804C29.2252 15.8435 29.0989 16.0371 29.0126 16.2503C28.9264 16.4634 28.882 16.6918 28.8819 16.9225V16.9212ZM10.0032 16.9212C10.0028 17.3871 10.1831 17.8341 10.5044 18.1639C10.8257 18.4936 11.2617 18.679 11.7164 18.6794C12.1711 18.6797 12.6073 18.495 12.9291 18.1657C13.2509 17.8365 13.4318 17.3898 13.4322 16.9238C13.4325 16.4579 13.2522 16.0109 12.9309 15.6812C12.6096 15.3515 12.1737 15.166 11.719 15.1657C11.4938 15.1655 11.2708 15.2108 11.0627 15.2989C10.8547 15.387 10.6656 15.5163 10.5062 15.6793C10.1845 16.0085 10.0035 16.4553 10.0032 16.9212Z" fill="white"/>
</svg>
