<svg width="37" height="41" viewBox="0 0 37 41" fill="none" xmlns="http://www.w3.org/2000/svg">
<path d="M9.11518 39.2743C8.2403 38.7493 7.46491 38.1007 6.8188 37.3532C6.1081 36.5817 5.44961 35.7723 4.84691 34.9294C3.43259 33.0606 2.32344 31.0182 1.5535 28.8648C0.628569 26.3634 0.180664 23.9658 0.180664 21.6207C0.180664 19.0018 0.80884 16.7155 2.03746 14.7945C2.94821 13.2929 4.28726 12.0381 5.91606 11.1599C7.49455 10.2757 9.30827 9.79174 11.1661 9.75916C11.8165 9.75916 12.5168 9.84421 13.26 10.0068C13.7939 10.1431 14.4443 10.3582 15.2389 10.6259C16.2498 10.9773 16.8058 11.1925 16.9944 11.245C17.5865 11.4401 18.0844 11.5251 18.4754 11.5251C18.7722 11.5251 19.191 11.4401 19.6666 11.31C19.9342 11.225 20.439 11.0749 21.1615 10.796C21.877 10.5609 22.44 10.3595 22.8879 10.2094C23.5743 10.0268 24.2385 9.85797 24.8307 9.77292C25.5326 9.67311 26.245 9.64667 26.9537 9.69413C28.1818 9.76652 29.3914 10.0012 30.5439 10.3908C32.4284 11.0749 33.9524 12.143 35.0867 13.6613C34.6073 13.9278 34.1573 14.2353 33.743 14.5793C32.8411 15.3005 32.0729 16.147 31.4674 17.087C30.676 18.3715 30.2657 19.8186 30.2762 21.2881C30.3054 23.0928 30.8184 24.6824 31.8294 26.057C32.5726 27.0756 33.5385 27.9468 34.6679 28.6171C35.2462 28.9686 35.744 29.21 36.221 29.3725C35.9978 29.9979 35.7593 30.6032 35.4778 31.2036C34.8393 32.5498 34.0656 33.8405 33.1661 35.0594C32.3646 36.1088 31.7364 36.8905 31.2594 37.4108C30.5161 38.2049 29.8006 38.8115 29.0781 39.2343C28.2836 39.7095 27.3448 39.9634 26.3907 39.9634C25.7446 39.9858 25.0986 39.9153 24.4771 39.7546C23.9432 39.592 23.4148 39.4156 22.8948 39.2143C22.3542 38.9903 21.7968 38.801 21.2266 38.6477C19.8173 38.3212 18.3397 38.3191 16.9292 38.6414C16.351 38.7915 15.7949 38.9666 15.2458 39.1817C14.4734 39.4744 13.9603 39.6708 13.6636 39.7546C13.0714 39.9109 12.4571 40.0084 11.8359 40.041C10.8749 40.041 9.9791 39.7933 9.09161 39.2918L9.11518 39.2743ZM21.7896 8.48846C20.5333 9.05502 19.3338 9.29641 18.1426 9.21761C17.9554 8.13576 18.1426 7.0289 18.6404 5.81698C19.0643 4.79024 19.6905 3.84111 20.4889 3.01542C21.332 2.14622 22.3551 1.43377 23.5008 0.918009C24.7211 0.351445 25.8846 0.045025 26.9967 0C27.1409 1.13313 26.9967 2.2475 26.5349 3.45191C26.1076 4.51661 25.4825 5.50797 24.6865 6.38354C23.8739 7.25394 22.8768 7.96915 21.7536 8.48721L21.7896 8.48846Z" fill="white"/>
</svg>
